<svg viewBox="0 0 24 24" fill="none" xmlns="http://www.w3.org/2000/svg">
<path fill-rule="evenodd" clip-rule="evenodd" d="M12.9597 9.16104C12.9597 7.29248 13.7361 5.55065 15.0792 4.30424C15.6528 3.77194 15.3693 2.81307 14.5984 2.6784C14.0607 2.58445 13.513 2.53687 12.9597 2.53687C7.73336 2.53687 3.49658 6.77364 3.49658 12C3.49658 17.2263 7.73336 21.4631 12.9597 21.4631C16.1633 21.4631 19.0958 19.858 20.8392 17.2421C21.273 16.5913 20.7749 15.7251 19.9942 15.7727C19.8581 15.781 19.7212 15.7852 19.5839 15.7852C15.9254 15.7852 12.9597 12.8195 12.9597 9.16104ZM17.9913 17.6148C13.4348 21.846 5.54885 18.3655 5.54885 12.0001C5.54885 8.07737 8.65764 4.5959 12.5211 4.36012C11.6276 5.70098 11.0841 7.56437 11.0841 9.23249C11.0841 13.3277 14.091 16.9339 17.9913 17.6148Z" fill="currentColor"/>
</svg>
